<?xml version="1.0" encoding="utf-8"?>
<!-- Generator: Adobe Illustrator 16.0.0, SVG Export Plug-In . SVG Version: 6.00 Build 0)  -->
<!DOCTYPE svg PUBLIC "-//W3C//DTD SVG 1.1//EN" "http://www.w3.org/Graphics/SVG/1.1/DTD/svg11.dtd">
<svg version="1.1" id="Layer_1" xmlns="http://www.w3.org/2000/svg" xmlns:xlink="http://www.w3.org/1999/xlink" x="0px" y="0px"
	 width="532.273px" height="564.199px" viewBox="0 0 532.273 564.199" enable-background="new 0 0 532.273 564.199"
	 xml:space="preserve">
<symbol  id="New_Symbol" viewBox="-10 -10 20 20">
	<polygon opacity="0.1" fill="#FFFFFF" points="9.5,-9.5 -9.5,-9.5 -9.5,9.5 9.5,9.5 	"/>
	<polygon fill="none" stroke="#5999DD" stroke-miterlimit="10" points="9.5,-9.5 -9.5,-9.5 -9.5,9.5 9.5,9.5 	"/>
</symbol>
<g>
	<g opacity="0.15">
		<path fill="none" stroke="#FFFFFF" stroke-width="2" stroke-miterlimit="10" d="M72.032,69.281
			c-23.661,19.846-48.085,44.272-58.008,74.038c-11.449,35.11,4.579,70.984,19.846,102.278
			c15.265,32.056,32.056,63.349,46.558,96.169c11.449,25.953,27.478,56.483,23.663,85.485c-3.054,20.608-9.923,40.455-13.739,61.063
			c-3.054,13.737,9.921,0,14.5-3.817c26.715-22.899,55.719-48.849,66.407-83.959c5.341-17.555,2.287-33.584-3.818-50.375
			c-6.105-16.028-12.975-31.295-19.847-47.323c-14.5-32.057-29.765-64.115-45.032-96.172c-6.105-11.447-12.21-23.66-17.555-35.874
			c-5.343-12.975-8.394-26.713-9.158-41.213c-0.764-11.452-0.764-22.136,0.764-33.586c0.764-8.396,3.051-16.028,3.815-24.424
			C81.191,66.991,77.376,65.466,72.032,69.281L72.032,69.281z M421.607,69.281c-23.662,19.846-48.086,44.272-58.01,74.038
			c-11.448,35.11,4.581,70.984,19.845,102.278c15.267,32.056,32.058,63.349,46.561,96.169
			c11.451,25.953,27.479,56.483,23.661,85.485c-3.054,20.608-9.923,40.455-13.741,61.063c-3.051,13.737,9.924,0,14.506-3.817
			c26.712-22.899,55.719-48.849,66.402-83.959c5.345-17.555,2.29-33.584-3.817-50.375c-6.104-16.028-12.974-31.295-19.842-47.323
			c-14.501-32.057-29.77-64.115-45.035-96.172c-6.105-11.447-12.214-23.66-17.555-35.874c-5.345-12.975-8.396-26.713-9.159-41.213
			c-0.763-11.452-0.763-22.136,0.764-33.586c0.764-8.396,3.054-16.028,3.815-24.424C430.767,66.991,426.95,65.466,421.607,69.281
			L421.607,69.281z"/>
		<path fill="none" stroke="#FFFFFF" stroke-width="2" stroke-miterlimit="10" d="M241.478,11.276
			c-26.714,22.132-55.72,48.849-71.748,80.141c-11.449,22.137-12.975,45.031-6.869,67.931c7.633,27.476,18.318,54.956,29.767,81.668
			c22.137,51.138,51.141,99.226,72.511,151.125c7.633,18.321,16.028,38.929,17.556,59.537c1.526,25.188-6.869,51.902-13.738,75.563
			c-1.526,6.868-6.107,16.03-5.344,22.897c0.764,5.345,3.817,3.055,6.869,0.765c12.976-9.922,25.951-21.371,37.401-32.822
			c31.292-29.766,67.166-69.456,64.113-116.015c-1.525-19.082-10.686-37.4-18.317-54.955c-8.396-20.607-17.556-40.453-26.716-60.297
			c-16.79-37.4-34.347-74.038-52.665-110.675c-6.106-12.975-13.739-25.188-18.318-38.164c-6.869-17.556-9.922-35.874-10.686-54.19
			c-0.765-13.74,0-28.241,1.526-41.979c0.764-9.159,3.814-17.555,3.814-26.714C252.926,6.696,248.347,5.932,241.478,11.276
			L241.478,11.276z"/>
	</g>
	<g opacity="0.15">
		<g>
			<polyline fill="none" stroke="#FFFFFF" stroke-miterlimit="10" points="522.362,548.6 522.362,554.1 516.862,554.1 			"/>
			
				<line fill="none" stroke="#FFFFFF" stroke-miterlimit="10" stroke-dasharray="12,12" x1="504.862" y1="554.1" x2="21.862" y2="554.1"/>
			<polyline fill="none" stroke="#FFFFFF" stroke-miterlimit="10" points="15.862,554.1 10.362,554.1 10.362,548.6 			"/>
			
				<line fill="none" stroke="#FFFFFF" stroke-miterlimit="10" stroke-dasharray="12,12" x1="10.362" y1="536.6" x2="10.362" y2="19.6"/>
			<polyline fill="none" stroke="#FFFFFF" stroke-miterlimit="10" points="10.362,13.6 10.362,8.1 15.862,8.1 			"/>
			
				<line fill="none" stroke="#FFFFFF" stroke-miterlimit="10" stroke-dasharray="12,12" x1="27.862" y1="8.1" x2="510.862" y2="8.1"/>
			<polyline fill="none" stroke="#FFFFFF" stroke-miterlimit="10" points="516.862,8.1 522.362,8.1 522.362,13.6 			"/>
			
				<line fill="none" stroke="#FFFFFF" stroke-miterlimit="10" stroke-dasharray="12,12" x1="522.362" y1="25.6" x2="522.362" y2="542.6"/>
		</g>
	</g>
	
		<use xlink:href="#New_Symbol"  width="20" height="20" id="XMLID_1_" x="-10" y="-10" transform="matrix(1 0 0 -1 10.8623 553.5996)" overflow="visible"/>
	
		<use xlink:href="#New_Symbol"  width="20" height="20" id="XMLID_2_" x="-10" y="-10" transform="matrix(1 0 0 -1 522.2734 554.1992)" overflow="visible"/>
	
		<use xlink:href="#New_Symbol"  width="20" height="20" id="XMLID_3_" x="-10" y="-10" transform="matrix(1 0 0 -1 522.2734 10)" overflow="visible"/>
	
		<use xlink:href="#New_Symbol"  width="20" height="20" id="XMLID_4_" x="-10" y="-10" transform="matrix(1 0 0 -1 10 10)" overflow="visible"/>
</g>
</svg>
