<?xml version="1.0" encoding="utf-8"?>
<!-- Generator: Adobe Illustrator 16.0.0, SVG Export Plug-In . SVG Version: 6.00 Build 0)  -->
<!DOCTYPE svg PUBLIC "-//W3C//DTD SVG 1.1//EN" "http://www.w3.org/Graphics/SVG/1.1/DTD/svg11.dtd">
<svg version="1.1" id="Layer_1" xmlns="http://www.w3.org/2000/svg" xmlns:xlink="http://www.w3.org/1999/xlink" x="0px" y="0px"
	 width="209.448px" height="45.153px" viewBox="0 0 209.448 45.153" enable-background="new 0 0 209.448 45.153"
	 xml:space="preserve">
<g>
	<g>
		<path fill-rule="evenodd" clip-rule="evenodd" fill="#405160" d="M100.246,35.52c-0.306-0.479-0.473-0.71-0.609-0.957
			c-1.857-3.372-3.705-6.747-5.564-10.118c-2.304-4.175-4.62-8.344-6.926-12.518c-1.84-3.332-3.666-6.673-5.516-10
			c-0.261-0.47-0.572-0.941-0.959-1.307c-1.146-1.082-3.075-0.693-3.682,0.742c-0.171,0.405-0.196,0.895-0.196,1.346
			c-0.01,13.272-0.008,26.544-0.007,39.816c0,0.292-0.008,0.59,0.04,0.877c0.159,0.961,1.076,1.705,2.056,1.691
			c1.114-0.016,1.953-0.743,2.052-1.809c0.035-0.373,0.017-0.752,0.017-1.129c0-10.174,0-20.348,0.001-30.521
			c0-0.461-0.008-0.922,0.03-1.38c0.014-0.173,0.148-0.336,0.289-0.63c0.494,0.584,0.791,1.131,1.09,1.673
			c2.104,3.81,4.204,7.621,6.307,11.432c2.143,3.883,4.29,7.765,6.429,11.649c1.655,3.006,3.301,6.016,4.956,9.021
			c0.161,0.293,0.321,0.596,0.536,0.848c0.666,0.782,1.531,0.977,2.498,0.734c0.961-0.241,1.5-0.874,1.585-1.865
			c0.043-0.499,0.067-1.003,0.068-1.505c0.007-2.177,0.003-4.354,0.003-6.531c0-10.508,0.001-21.018-0.004-31.525
			c0-0.627-0.009-1.26-0.091-1.879c-0.124-0.939-0.846-1.564-1.788-1.633c-1.058-0.076-1.899,0.461-2.175,1.497
			c-0.147,0.556-0.185,1.155-0.185,1.735c-0.011,10.132-0.007,20.264-0.008,30.395c0,0.378,0.007,0.755-0.015,1.131
			C100.467,34.946,100.387,35.091,100.246,35.52z"/>
		<path fill-rule="evenodd" clip-rule="evenodd" fill="#405160" d="M30.142,23.024c0,6.363,0,12.727,0.001,19.09
			c0,0.378-0.021,0.759,0.024,1.131c0.126,1.045,0.868,1.741,1.914,1.834c1.256,0.111,2.218-0.709,2.274-1.949
			c0.016-0.335,0.004-0.67,0.004-1.005c0-5.526-0.001-11.054,0.002-16.579c0-0.418,0.004-0.839,0.053-1.253
			c0.03-0.263,0.212-0.466,0.495-0.491c0.375-0.032,0.751-0.041,1.127-0.041c4.48-0.002,8.96,0,13.44-0.004
			c0.459,0,0.924,0.003,1.378-0.057c1.315-0.172,1.896-0.908,1.805-2.238c-0.069-0.992-0.669-1.6-1.685-1.679
			c-0.333-0.026-0.669-0.011-1.004-0.011c-4.689,0-9.378,0.002-14.067-0.002c-1.506-0.002-1.54-0.035-1.542-1.557
			c-0.005-4.019-0.002-8.038,0-12.058c0-0.292,0-0.587,0.036-0.876c0.049-0.396,0.248-0.59,0.661-0.626
			c0.374-0.034,0.752-0.028,1.129-0.028c4.856-0.002,9.713,0,14.57-0.004c0.418,0,0.843,0.019,1.252-0.051
			c0.916-0.153,1.604-1.061,1.572-2.004c-0.032-0.926-0.669-1.7-1.587-1.836c-0.577-0.086-1.167-0.102-1.752-0.102
			C44.84,0.622,39.438,0.625,34.038,0.627c-0.418,0-0.838,0.001-1.255,0.038c-1.683,0.151-2.614,1.178-2.641,2.891
			c-0.003,0.209,0,0.418,0,0.628C30.142,10.464,30.142,16.744,30.142,23.024z"/>
		<path fill-rule="evenodd" clip-rule="evenodd" fill="#405160" d="M0.009,23.083c0,6.322,0,12.645,0.001,18.967
			c0,0.377-0.018,0.756,0.014,1.13c0.098,1.144,0.957,1.917,2.096,1.911c1.232-0.007,2.034-0.788,2.076-2.029
			c0.01-0.293,0.001-0.586,0.001-0.879c0-5.526,0.005-11.053-0.003-16.58c-0.003-1.936,0.011-1.846,1.88-1.844
			c4.438,0.003,8.876,0.006,13.314-0.006c0.583,0,1.169-0.058,1.748-0.133c0.483-0.063,0.833-0.359,1.097-0.767
			c0.265-0.409,0.307-0.861,0.285-1.327c-0.049-0.998-0.649-1.646-1.629-1.74c-0.333-0.031-0.669-0.014-1.004-0.014
			c-4.689,0-9.379,0.002-14.069-0.002c-1.587-0.002-1.616-0.029-1.618-1.614c-0.004-3.978-0.001-7.955,0-11.933
			c0-0.252-0.007-0.504,0.013-0.754c0.05-0.611,0.226-0.785,0.874-0.829c0.375-0.026,0.753-0.016,1.13-0.016
			c4.815-0.001,9.63-0.001,14.445-0.001c0.335,0,0.672,0.017,1.004-0.02c0.993-0.106,1.791-0.966,1.761-1.964
			c-0.03-0.994-0.678-1.861-1.628-1.927c-0.5-0.033-1.002-0.084-1.503-0.084C14.765,0.624,9.238,0.624,3.711,0.628
			C3.251,0.629,2.792,0.671,2.332,0.694c-0.669,0.035-1.18,0.369-1.629,0.842C0.109,2.161-0.002,2.911,0,3.739
			C0.016,10.187,0.009,16.635,0.009,23.083z"/>
		<path fill-rule="evenodd" clip-rule="evenodd" fill="#405160" d="M170.777,13.163c-0.353-0.607-0.266-1.078-0.268-1.53
			c-0.008-2.889-0.004-5.776-0.004-8.665c0-0.334-0.019-0.669-0.008-1.004c0.034-0.972-0.891-1.938-1.906-1.945
			c-1.205-0.008-1.986,0.588-2.162,1.803c-0.078,0.535-0.082,1.084-0.082,1.627c-0.004,10.505-0.01,21.01,0.003,31.516
			c0.001,1.294,0.056,2.585,0.306,3.87c0.615,3.172,2.551,5.13,5.581,5.964c2.003,0.551,4.073,0.395,6.103-0.016
			c1.281-0.258,1.819-1.188,1.519-2.554c-0.142-0.641-0.55-1.023-1.177-1.156c-0.533-0.112-1.063-0.107-1.616-0.044
			c-0.952,0.107-1.921,0.168-2.876,0.115c-1.678-0.091-2.786-1-3.333-2.594c-0.247-0.72-0.36-1.449-0.358-2.215
			c0.015-5.859,0.008-11.72,0.01-17.579c0-0.293-0.004-0.587,0.025-0.878c0.047-0.477,0.231-0.652,0.724-0.692
			c0.292-0.024,0.586-0.018,0.879-0.018c1.632-0.002,3.265,0.004,4.897-0.005c0.459-0.002,0.923-0.016,1.375-0.084
			c0.277-0.041,0.569-0.149,0.801-0.307c0.719-0.488,0.819-1.207,0.674-2.004c-0.144-0.787-0.619-1.273-1.375-1.457
			c-0.359-0.088-0.746-0.08-1.121-0.082c-1.8-0.008-3.6,0-5.399-0.006C171.578,13.222,171.167,13.184,170.777,13.163z"/>
		<path fill-rule="evenodd" clip-rule="evenodd" fill="#405160" d="M146.166,19.892c0,5.021-0.006,10.043,0.003,15.065
			c0.003,1.38,0.085,2.751,0.385,4.11c0.685,3.102,2.647,4.961,5.635,5.76c1.251,0.334,2.569,0.374,3.868,0.248
			c0.789-0.076,1.59-0.16,2.35-0.371c1.218-0.338,1.752-1.692,1.175-2.819c-0.218-0.425-0.554-0.733-1.051-0.815
			c-0.536-0.087-1.062-0.145-1.616-0.035c-1.072,0.21-2.167,0.25-3.248,0.081c-1.498-0.234-2.49-1.116-2.979-2.544
			c-0.258-0.756-0.346-1.538-0.344-2.344c0.015-5.775,0.007-11.551,0.008-17.326c0-0.333-0.005-0.67,0.026-1.002
			c0.046-0.488,0.231-0.671,0.708-0.713c0.292-0.025,0.586-0.019,0.879-0.019c1.632-0.002,3.264,0.007,4.896-0.005
			c0.5-0.004,1.006-0.023,1.499-0.103c0.273-0.044,0.558-0.185,0.779-0.356c0.636-0.492,0.733-1.174,0.593-1.922
			c-0.148-0.781-0.613-1.28-1.37-1.468c-0.358-0.089-0.746-0.083-1.121-0.085c-1.757-0.008-3.515-0.001-5.272-0.004
			c-1.607-0.004-1.613-0.006-1.616-1.589c-0.005-2.888-0.001-5.774-0.002-8.662c0-0.335,0.015-0.672-0.017-1.004
			c-0.114-1.192-0.813-1.896-1.903-1.941c-1.2-0.05-1.966,0.56-2.175,1.792c-0.083,0.49-0.086,0.998-0.086,1.5
			C146.164,8.845,146.166,14.368,146.166,19.892z"/>
		<path fill-rule="evenodd" clip-rule="evenodd" fill="#405160" d="M100.246,35.52c0.141-0.429,0.222-0.573,0.23-0.72
			c0.022-0.376,0.015-0.753,0.015-1.131c0-10.131-0.003-20.263,0.008-30.395c0-0.58,0.037-1.18,0.185-1.735
			c0.275-1.036,1.117-1.573,2.175-1.497c0.942,0.068,1.664,0.693,1.788,1.633c0.082,0.619,0.091,1.252,0.091,1.879
			c0.005,10.508,0.004,21.018,0.004,31.525c0,2.178,0.004,4.354-0.003,6.531c-0.001,0.502-0.025,1.006-0.068,1.505
			c-0.085,0.991-0.624,1.624-1.585,1.865c-0.967,0.242-1.833,0.048-2.498-0.734c-0.214-0.252-0.375-0.555-0.536-0.848
			c-1.655-3.005-3.3-6.015-4.956-9.021c-2.14-3.885-4.287-7.767-6.429-11.649c-2.103-3.811-4.203-7.622-6.307-11.432
			c-0.299-0.542-0.596-1.089-1.09-1.673c-0.14,0.294-0.274,0.457-0.289,0.63c-0.039,0.458-0.03,0.919-0.03,1.38
			c-0.001,10.174,0,20.348-0.001,30.521c0,0.377,0.019,0.756-0.017,1.129c-0.099,1.065-0.938,1.793-2.052,1.809
			c-0.979,0.014-1.897-0.73-2.056-1.691c-0.048-0.287-0.04-0.585-0.04-0.877c-0.001-13.272-0.003-26.544,0.007-39.816
			c0-0.451,0.025-0.94,0.196-1.346c0.607-1.436,2.537-1.824,3.682-0.742c0.388,0.365,0.698,0.837,0.959,1.307
			c1.851,3.327,3.676,6.668,5.516,10c2.306,4.174,4.622,8.343,6.926,12.518c1.86,3.371,3.708,6.746,5.564,10.118
			C99.773,34.81,99.939,35.04,100.246,35.52z"/>
		<path fill-rule="evenodd" clip-rule="evenodd" fill="#405160" d="M30.142,23.024c0-6.28,0-12.561,0-18.841
			c0-0.21-0.003-0.419,0-0.628c0.026-1.713,0.958-2.739,2.641-2.891c0.417-0.037,0.836-0.038,1.255-0.038
			c5.4-0.002,10.802-0.005,16.203,0.003c0.584,0,1.175,0.016,1.752,0.102c0.917,0.136,1.555,0.91,1.587,1.836
			c0.032,0.943-0.656,1.851-1.572,2.004c-0.409,0.069-0.834,0.051-1.252,0.051c-4.857,0.004-9.713,0.002-14.57,0.004
			c-0.376,0-0.755-0.006-1.129,0.028c-0.413,0.036-0.612,0.229-0.661,0.626c-0.035,0.289-0.036,0.584-0.036,0.876
			c-0.002,4.02-0.005,8.039,0,12.058c0.002,1.521,0.036,1.555,1.542,1.557c4.689,0.004,9.378,0.002,14.067,0.002
			c0.335,0,0.671-0.016,1.004,0.011c1.015,0.079,1.616,0.687,1.685,1.679c0.091,1.33-0.49,2.066-1.805,2.238
			c-0.455,0.06-0.919,0.057-1.378,0.057c-4.48,0.004-8.959,0.002-13.44,0.004c-0.376,0-0.753,0.009-1.127,0.041
			c-0.283,0.025-0.464,0.229-0.495,0.491c-0.048,0.414-0.052,0.835-0.053,1.253c-0.003,5.525-0.002,11.053-0.002,16.579
			c0,0.335,0.012,0.67-0.004,1.005c-0.056,1.24-1.018,2.061-2.274,1.949c-1.046-0.093-1.788-0.789-1.914-1.834
			c-0.045-0.372-0.024-0.753-0.024-1.131C30.142,35.751,30.142,29.388,30.142,23.024z"/>
		<path fill-rule="evenodd" clip-rule="evenodd" fill="#405160" d="M0.009,23.083c0-6.448,0.007-12.896-0.009-19.344
			c-0.002-0.828,0.109-1.578,0.703-2.203c0.449-0.473,0.96-0.807,1.629-0.842c0.46-0.023,0.919-0.065,1.379-0.066
			C9.238,0.624,14.765,0.624,20.292,0.63c0.501,0,1.002,0.051,1.503,0.084c0.95,0.065,1.599,0.933,1.628,1.927
			c0.03,0.998-0.768,1.857-1.761,1.964c-0.332,0.036-0.669,0.02-1.004,0.02c-4.815,0-9.63,0-14.445,0.001
			c-0.376,0-0.755-0.011-1.13,0.016C4.436,4.685,4.259,4.858,4.209,5.47c-0.02,0.25-0.013,0.502-0.013,0.754
			c-0.001,3.978-0.003,7.955,0,11.933c0.002,1.585,0.031,1.612,1.618,1.614c4.69,0.004,9.379,0.002,14.069,0.002
			c0.335,0,0.672-0.018,1.004,0.014c0.98,0.094,1.581,0.742,1.629,1.74c0.022,0.466-0.02,0.918-0.285,1.327
			c-0.264,0.407-0.614,0.704-1.097,0.767c-0.579,0.075-1.165,0.133-1.748,0.133c-4.438,0.012-8.876,0.009-13.314,0.006
			c-1.87-0.002-1.883-0.092-1.88,1.844c0.008,5.527,0.002,11.054,0.003,16.58c0,0.293,0.009,0.586-0.001,0.879
			c-0.042,1.241-0.844,2.022-2.076,2.029c-1.139,0.006-1.998-0.768-2.096-1.911c-0.032-0.374-0.014-0.753-0.014-1.13
			C0.009,35.728,0.009,29.405,0.009,23.083z"/>
		<path fill-rule="evenodd" clip-rule="evenodd" fill="#405160" d="M170.777,13.163c0.39,0.021,0.801,0.059,1.21,0.061
			c1.8,0.006,3.6-0.002,5.399,0.006c0.375,0.002,0.762-0.006,1.121,0.082c0.756,0.184,1.231,0.67,1.375,1.457
			c0.146,0.797,0.045,1.516-0.674,2.004c-0.231,0.157-0.523,0.266-0.801,0.307c-0.452,0.068-0.916,0.082-1.375,0.084
			c-1.633,0.009-3.266,0.003-4.897,0.005c-0.293,0-0.587-0.007-0.879,0.018c-0.492,0.04-0.677,0.216-0.724,0.692
			c-0.029,0.291-0.025,0.585-0.025,0.878c-0.002,5.859,0.005,11.72-0.01,17.579c-0.002,0.766,0.111,1.495,0.358,2.215
			c0.547,1.594,1.655,2.503,3.333,2.594c0.955,0.053,1.924-0.008,2.876-0.115c0.553-0.063,1.083-0.068,1.616,0.044
			c0.627,0.133,1.035,0.516,1.177,1.156c0.301,1.365-0.237,2.296-1.519,2.554c-2.029,0.41-4.1,0.566-6.103,0.016
			c-3.03-0.834-4.966-2.792-5.581-5.964c-0.25-1.285-0.305-2.576-0.306-3.87c-0.013-10.506-0.007-21.011-0.003-31.516
			c0-0.543,0.004-1.092,0.082-1.627c0.176-1.215,0.957-1.811,2.162-1.803c1.016,0.008,1.94,0.974,1.906,1.945
			c-0.011,0.335,0.008,0.67,0.008,1.004c0,2.889-0.004,5.776,0.004,8.665C170.511,12.085,170.424,12.556,170.777,13.163z"/>
		<path fill-rule="evenodd" clip-rule="evenodd" fill="#405160" d="M146.166,19.892c0-5.523-0.002-11.047,0.004-16.57
			c0-0.502,0.003-1.01,0.086-1.5c0.209-1.232,0.975-1.842,2.175-1.792c1.091,0.045,1.789,0.749,1.903,1.941
			c0.031,0.332,0.017,0.669,0.017,1.004c0.001,2.888-0.003,5.774,0.002,8.662c0.003,1.583,0.009,1.585,1.616,1.589
			c1.758,0.003,3.516-0.004,5.272,0.004c0.375,0.002,0.763-0.004,1.121,0.085c0.757,0.188,1.222,0.687,1.37,1.468
			c0.141,0.748,0.043,1.43-0.593,1.922c-0.222,0.172-0.506,0.313-0.779,0.356c-0.493,0.079-0.999,0.099-1.499,0.103
			c-1.633,0.012-3.265,0.003-4.896,0.005c-0.293,0-0.587-0.007-0.879,0.019c-0.477,0.042-0.662,0.225-0.708,0.713
			c-0.031,0.332-0.026,0.669-0.026,1.002c-0.001,5.775,0.007,11.551-0.008,17.326c-0.002,0.806,0.086,1.588,0.344,2.344
			c0.488,1.428,1.48,2.31,2.979,2.544c1.081,0.169,2.176,0.129,3.248-0.081c0.555-0.109,1.08-0.052,1.616,0.035
			c0.497,0.082,0.833,0.391,1.051,0.815c0.577,1.127,0.043,2.481-1.175,2.819c-0.76,0.211-1.561,0.295-2.35,0.371
			c-1.299,0.126-2.617,0.086-3.868-0.248c-2.987-0.799-4.95-2.658-5.635-5.76c-0.3-1.359-0.382-2.73-0.385-4.11
			C146.16,29.935,146.166,24.913,146.166,19.892z"/>
		<g>
			<path fill="#405160" d="M137.275,24.243c-0.087-1.504-0.216-3.014-0.704-4.452c-0.979-2.884-2.802-5.04-5.654-6.192
				c-3.276-1.324-6.626-1.297-9.946-0.182c-2.121,0.712-3.823,2.037-5.023,3.965c-1.158,1.857-1.754,3.879-1.76,6.065
				c-0.01,3.392,0.016,6.782-0.012,10.174c-0.01,1.268,0.12,2.505,0.453,3.725c0.765,2.8,2.371,4.966,4.92,6.378
				c1.678,0.93,3.52,1.318,5.424,1.377c2.876,0.087,5.663-0.441,8.384-1.333c0.632-0.207,1.253-0.483,1.833-0.812
				c0.722-0.407,1.029-1.286,0.826-2.063c-0.223-0.849-0.955-1.378-1.743-1.346c-0.506,0.021-0.988,0.078-1.469,0.268
				c-1.914,0.752-3.865,1.293-5.947,1.436c-1.191,0.082-2.334-0.053-3.489-0.203c-0.445-0.057-0.887-0.248-1.303-0.439
				c-2.071-0.961-3.11-2.717-3.619-4.844c-0.234-0.984-0.225-3.963-0.036-5.201c0.542-0.271,1.053-0.186,1.545-0.186
				c4.438-0.006,8.876-0.003,13.313-0.004c0.377,0,0.754,0.012,1.129-0.015c1.762-0.125,2.656-0.979,2.869-2.728
				c0.02-0.165,0.02-0.334,0.021-0.502C137.287,26.167,137.332,25.202,137.275,24.243z M133.208,25.196
				c-0.035,1.195-0.123,1.303-1.283,1.307c-2.676,0.006-5.351,0.001-8.026,0.001c-1.421,0-2.843,0.003-4.264-0.001
				c-0.37-0.002-0.741-0.026-1.114-0.041c-0.117-0.229-0.184-0.3-0.188-0.375c-0.072-1.377-0.133-2.756,0.091-4.125
				c0.229-1.398,0.831-2.617,1.839-3.628c0.882-0.886,1.949-1.452,3.16-1.692c1.529-0.306,3.086-0.314,4.605,0.022
				c2.479,0.55,4.012,2.185,4.687,4.565C133.078,22.507,133.248,23.848,133.208,25.196z"/>
		</g>
		<g>
			<path fill="#405160" d="M205.276,25.813c0.021,1.047,0.005,2.094,0.004,3.141c-0.001,1.59,0.013,3.182-0.005,4.772
				c0.018-1.591,0.004-3.183,0.006-4.772C205.281,27.907,205.296,26.86,205.276,25.813z"/>
			<path fill="#405160" d="M209.443,24.853c0.003-1.471-0.128-2.923-0.525-4.346c-0.953-3.419-3.051-5.818-6.4-7.029
				c-3.214-1.164-6.506-1.156-9.75-0.211c-2.766,0.806-4.875,2.535-6.194,5.143c-0.824,1.629-1.269,3.302-1.278,5.134
				c-0.008,1.758-0.001,3.216-0.001,5.216h-0.001c0,2,0.01,3.238-0.004,4.829c-0.01,1.093,0.104,2.19,0.357,3.261
				c1.069,4.508,4.811,7.52,9.082,8.055c1.752,0.219,3.494,0.263,5.25,0.005c3.789-0.557,6.61-2.449,8.313-5.915
				c0.828-1.684,1.124-3.498,1.143-5.354C209.462,30.711,209.437,27.782,209.443,24.853z M205.275,33.727
				c-0.012,1.048-0.114,2.087-0.512,3.078c-0.996,2.472-2.871,3.84-5.44,4.306c-1.281,0.232-2.571,0.248-3.866,0.017
				c-2.123-0.379-3.861-1.363-5-3.229c-0.755-1.238-1.078-2.623-1.083-4.076c-0.004-1.172-0.003-2.345-0.003-3.518
				c0-2.009-0.008-4.019,0.004-6.028c0.006-1.048,0.117-2.072,0.471-3.083c0.646-1.854,1.895-3.104,3.614-3.971
				c1.276-0.645,2.647-0.802,4.026-0.788c1.207,0.013,2.418,0.143,3.552,0.673c2.342,1.096,3.776,2.875,4.105,5.449
				c0.138,1.074,0.112,2.171,0.133,3.258c0.021,1.047,0.005,2.094,0.005,3.141C205.279,30.544,205.292,32.136,205.275,33.727z"/>
		</g>
	</g>
</g>
</svg>
